<svg fill="none" height="13" viewBox="0 0 15 13" width="15" xmlns="http://www.w3.org/2000/svg"><path d="m13.4473 3.32812c.5859-.43945 1.1132-.96679 1.5234-1.58203-.5273.23438-1.1426.41016-1.7578.46875.6445-.38086 1.1133-.96679 1.3476-1.699215-.5859.351563-1.2597.615235-1.9335.761715-.586-.615231-1.377-.966793-2.2559-.966793-1.69922 0-3.07618 1.376953-3.07618 3.076173 0 .23437.0293.46875.08789.70312-2.54883-.14648-4.83398-1.37695-6.35742-3.222652-.263671.439452-.410156.966792-.410156 1.552732 0 1.05469.527346 1.99219 1.376956 2.54883-.49805-.0293-.996096-.14648-1.406252-.38086v.0293c0 1.49414 1.054682 2.72461 2.460942 3.01758-.23438.05859-.52735.11718-.79102.11718-.20508 0-.38086-.02929-.58594-.05859.38086 1.23047 1.52344 2.10937 2.8711 2.13867-1.05469.82027-2.37305 1.31837-3.808598 1.31837-.263672 0-.498047-.0293-.732422-.0586 1.34766.8789 2.95898 1.377 4.7168 1.377 5.6543 0 8.7305-4.65825 8.7305-8.73052 0-.14648 0-.26367 0-.41016z" fill="#433840"/></svg>